<?xml version="1.0" encoding="UTF-8"?>
<svg version="1.1" xmlns="http://www.w3.org/2000/svg" width="300" height="187">
<path d="M0 0 C2.64 0 5.28 0 8 0 C9.32 7.92 10.64 15.84 12 24 C12.33 16.08 12.66 8.16 13 0 C14.65 0 16.3 0 18 0 C18 14.85 18 29.7 18 45 C15.36 45 12.72 45 10 45 C8.25374177 39.40438123 7.23862917 33.85404346 6.375 28.0625 C5.92125 25.071875 5.4675 22.08125 5 19 C5 27.58 5 36.16 5 45 C3.35 45 1.7 45 0 45 C0 30.15 0 15.3 0 0 Z " fill="#E44546" transform="translate(78,70)"/>
<path d="M0 0 C0 2.31 0 4.62 0 7 C0.804375 5.7934375 0.804375 5.7934375 1.625 4.5625 C4.43105369 1.53491576 5.96825194 1.27489191 10 1 C10.71484375 2.609375 10.71484375 2.609375 11 5 C9.56640625 8.015625 9.56640625 8.015625 7.5625 11.25 C6.90378906 12.32765625 6.24507812 13.4053125 5.56640625 14.515625 C5.04949219 15.33546875 4.53257812 16.1553125 4 17 C4.66 17.99 5.32 18.98 6 20 C6.33 19.34 6.66 18.68 7 18 C9.64860427 17.40644386 12.29197322 17.25790731 15 17 C15.66 18.32 16.32 19.64 17 21 C18.32 20.67 19.64 20.34 21 20 C19.93574467 22.3945745 18.80147129 24.24533969 17.14453125 26.29296875 C14.33666097 29.8373296 12.04984721 33.62942435 9.68359375 37.4765625 C7.0207669 41.46771365 7.0207669 41.46771365 5 43 C3.68 43 2.36 43 1 43 C1.14055247 37.37790119 3.59451428 34.79108953 7.30859375 30.9296875 C8.96951107 29.03478413 9.98555757 27.29396529 11 25 C10.195625 25.185625 9.39125 25.37125 8.5625 25.5625 C7.716875 25.706875 6.87125 25.85125 6 26 C5.67 25.67 5.34 25.34 5 25 C4.649375 25.7425 4.29875 26.485 3.9375 27.25 C1.33903478 30.93814418 -0.92318439 32.06887682 -5 34 C-6.32 34 -7.64 34 -9 34 C-8.68861865 30.7220036 -8.32674163 29.31932973 -5.93359375 26.98046875 C-5.10988281 26.38878906 -4.28617188 25.79710937 -3.4375 25.1875 C-2.61121094 24.58292969 -1.78492188 23.97835937 -0.93359375 23.35546875 C-0.29550781 22.90816406 0.34257812 22.46085937 1 22 C0.34 20.35 -0.32 18.7 -1 17 C-1.99 18.98 -2.98 20.96 -4 23 C-5.32 23 -6.64 23 -8 23 C-7.36934845 17.2190275 -6.34844868 11.6556294 -5 6 C-5.99 8.31 -6.98 10.62 -8 13 C-8.66 13 -9.32 13 -10 13 C-9.88490339 11.58249437 -9.75746342 10.16598831 -9.625 8.75 C-9.55539063 7.96109375 -9.48578125 7.1721875 -9.4140625 6.359375 C-8.9787895 3.87914019 -8.31630309 2.14017625 -7 0 C-4.3333581 -1.33332095 -2.83319697 -0.67102033 0 0 Z M3 9 C4 11 4 11 4 11 Z M12 21 C13 23 13 23 13 23 Z " fill="#E44546" transform="translate(200,133)"/>
<path d="M0 0 C4.04779013 0.03867315 6.52847482 0.63251079 9.75 3.25 C11.51078179 6.77156358 10.934646 10.80891951 10.9375 14.6875 C10.94974609 15.55955078 10.96199219 16.43160156 10.97460938 17.33007812 C10.97750977 18.58788086 10.97750977 18.58788086 10.98046875 19.87109375 C10.98457764 20.6386499 10.98868652 21.40620605 10.99291992 22.19702148 C10.75 24.25 10.75 24.25 8.75 27.25 C9.10982019 32.46739275 10.17656298 37.39853573 11.4453125 42.46484375 C11.59613281 43.34849609 11.59613281 43.34849609 11.75 44.25 C11.42 44.58 11.09 44.91 10.75 45.25 C9.1 45.25 7.45 45.25 5.75 45.25 C4.43 39.97 3.11 34.69 1.75 29.25 C1.42 34.53 1.09 39.81 0.75 45.25 C-0.9 45.25 -2.55 45.25 -4.25 45.25 C-5.78084425 43.71915575 -5.37715779 42.33796856 -5.37939453 40.20507812 C-5.38254669 39.34748901 -5.38569885 38.4898999 -5.38894653 37.60632324 C-5.3869223 36.67404907 -5.38489807 35.7417749 -5.3828125 34.78125 C-5.38376923 33.83060669 -5.38472595 32.87996338 -5.38571167 31.9005127 C-5.38639357 29.88631118 -5.38453862 27.87210748 -5.38037109 25.85791016 C-5.37502298 22.76329645 -5.38031577 19.6688279 -5.38671875 16.57421875 C-5.38605797 14.62239551 -5.38477681 12.67057236 -5.3828125 10.71875 C-5.38483673 9.78647583 -5.38686096 8.85420166 -5.38894653 7.89367676 C-5.38579437 7.03608765 -5.38264221 6.17849854 -5.37939453 5.29492188 C-5.37859894 4.53626831 -5.37780334 3.77761475 -5.37698364 2.99597168 C-5.12484709 -0.47079986 -2.99125286 0.05942886 0 0 Z M0.75 5.25 C0.75 11.52 0.75 17.79 0.75 24.25 C2.07 23.92 3.39 23.59 4.75 23.25 C5.62557031 16.70688671 6.1048854 11.48352019 3.75 5.25 C2.76 5.25 1.77 5.25 0.75 5.25 Z " fill="#E44546" transform="translate(47.25,69.75)"/>
<path d="M0 0 C11.42307692 0 11.42307692 0 15 3 C16.54030551 6.08061102 16.18377376 9.32910283 16.203125 12.7109375 C16.20882507 13.47548248 16.21452515 14.24002747 16.22039795 15.02774048 C16.2298497 16.64673477 16.23638263 18.26574832 16.24023438 19.88476562 C16.24993496 22.35841558 16.28095335 24.83123281 16.3125 27.3046875 C16.31903068 28.87759923 16.3242809 30.45051691 16.328125 32.0234375 C16.3404718 32.76210052 16.3528186 33.50076355 16.36553955 34.2618103 C16.35191207 37.41300594 16.19351434 39.64635786 14.66699219 42.43603516 C10.37164799 46.46590847 6.12549647 45 0 45 C0 30.15 0 15.3 0 0 Z M6 5 C6 16.55 6 28.1 6 40 C9.74275212 39.42874646 9.74275212 39.42874646 11 38 C11.21832989 33.60001055 11.18579146 29.19465188 11.18530273 24.78979492 C11.18748751 22.57516218 11.20563531 20.36102877 11.22460938 18.14648438 C11.22754356 16.74479338 11.22952819 15.3431 11.23046875 13.94140625 C11.23457764 12.65951416 11.23868652 11.37762207 11.24291992 10.05688477 C11.32404989 6.89146994 11.32404989 6.89146994 9 5 C8.01 5 7.02 5 6 5 Z " fill="#000000" transform="translate(222,70)"/>
<path d="M0 0 C11.07203945 0.63456353 11.07203945 0.63456353 16 4 C20.11917368 8.77008084 19.26731277 14.13065833 19.0625 20.0625 C19.00242203 22.03229049 18.95128662 24.00237905 18.91015625 25.97265625 C18.86580444 27.27601929 18.86580444 27.27601929 18.82055664 28.60571289 C19.01824263 31.24340887 19.58001627 32.7814864 21 35 C23.15744233 36.33346029 23.15744233 36.33346029 25.625 37.25 C26.44226563 37.58515625 27.25953125 37.9203125 28.1015625 38.265625 C28.72804687 38.50796875 29.35453125 38.7503125 30 39 C30 39.66 30 40.32 30 41 C26.99700345 42.50149828 23.91523309 42.18438425 20.625 42.1875 C19.61566406 42.20586914 19.61566406 42.20586914 18.5859375 42.22460938 C14.89202397 42.2355166 12.08856344 42.12061653 9 40 C6.12262723 36.50604735 5.601916 33.59736515 5.76171875 29.09765625 C5.99806677 27.01701879 6.43447145 25.13893261 7 23.125 C8.27850975 18.42786635 8.68252907 13.8359682 8 9 C5.90549839 5.40942582 3.86624652 3.51888256 0 2 C0 1.34 0 0.68 0 0 Z " fill="#E54342" transform="translate(147,126)"/>
<path d="M0 0 C10 0 10 0 14 2 C15.59919459 5.19838918 15.16301759 8.67053358 15.16796875 12.18359375 C15.17129715 12.9949025 15.17462555 13.80621124 15.17805481 14.6421051 C15.1831213 16.35946078 15.18546322 18.07682631 15.18530273 19.79418945 C15.18748837 22.42350464 15.20564436 25.05239976 15.22460938 27.68164062 C15.2275435 29.3489569 15.22952817 31.01627516 15.23046875 32.68359375 C15.23765427 33.47116562 15.24483978 34.25873749 15.25224304 35.07017517 C15.23613717 38.9130469 15.18266282 40.72600577 13 44 C10 45 10 45 0 45 C0 30.15 0 15.3 0 0 Z M5 5 C5 16.55 5 28.1 5 40 C7.475 39.505 7.475 39.505 10 39 C10.049377 34.47934572 10.08570823 29.95884783 10.10986328 25.43798828 C10.11993118 23.89954902 10.13358646 22.36112893 10.15087891 20.82275391 C10.17509317 18.61355867 10.18647491 16.40461605 10.1953125 14.1953125 C10.20563507 13.50567413 10.21595764 12.81603577 10.22659302 12.10549927 C10.22699478 10.40199094 10.12191026 8.69914057 10 7 C9.34 6.34 8.68 5.68 8 5 C7.01 5 6.02 5 5 5 Z " fill="#E44546" transform="translate(100,70)"/>
<path d="M0 0 C3 2 3 2 4 5 C4.10871542 7.61191085 4.16402736 10.19634164 4.16796875 12.80859375 C4.17129715 13.57172379 4.17462555 14.33485382 4.17805481 15.12110901 C4.18311409 16.73413491 4.18546344 18.34717125 4.18530273 19.96020508 C4.18748875 22.42481768 4.20565332 24.88898223 4.22460938 27.35351562 C4.22754362 28.92187347 4.22952821 30.49023344 4.23046875 32.05859375 C4.23765427 32.79411972 4.24483978 33.52964569 4.25224304 34.28746033 C4.23575573 37.98906519 4.18461926 40.91924982 2 44 C-1.12942465 45.56471233 -4.61082223 45.69701958 -8 45 C-10.09619141 43.49487305 -10.09619141 43.49487305 -12 41 C-12.3978143 38.08920028 -12.56159 35.56451259 -12.53125 32.65625 C-12.5350769 31.85014282 -12.53890381 31.04403564 -12.54284668 30.21350098 C-12.5455639 28.51227568 -12.5382159 26.81100847 -12.52148438 25.10986328 C-12.5000699 22.50849104 -12.52129019 19.90988028 -12.546875 17.30859375 C-12.54423169 15.65363975 -12.53910663 13.99868746 -12.53125 12.34375 C-12.53934692 11.56761353 -12.54744385 10.79147705 -12.55578613 9.99182129 C-12.49371708 6.41025827 -12.30006624 4.39242684 -10.09399414 1.50732422 C-6.59404979 -1.01204811 -4.23238979 -0.40308474 0 0 Z M-6 5 C-7.47712785 7.9542557 -7.12989998 10.61260204 -7.1328125 13.90625 C-7.13376923 14.58675415 -7.13472595 15.2672583 -7.13571167 15.96838379 C-7.13639231 17.40747164 -7.13454607 18.84656257 -7.13037109 20.28564453 C-7.12502115 22.49128093 -7.13031991 24.6967137 -7.13671875 26.90234375 C-7.13605795 28.29947962 -7.13477674 29.69661536 -7.1328125 31.09375 C-7.13168457 32.36927734 -7.13055664 33.64480469 -7.12939453 34.95898438 C-7.21102599 37.91860306 -7.21102599 37.91860306 -6 40 C-4.68 40 -3.36 40 -2 40 C-0.52287215 37.0457443 -0.87010002 34.38739796 -0.8671875 31.09375 C-0.86623077 30.41324585 -0.86527405 29.7327417 -0.86428833 29.03161621 C-0.86360769 27.59252836 -0.86545393 26.15343743 -0.86962891 24.71435547 C-0.87497885 22.50871907 -0.86968009 20.3032863 -0.86328125 18.09765625 C-0.86394205 16.70052038 -0.86522326 15.30338464 -0.8671875 13.90625 C-0.86831543 12.63072266 -0.86944336 11.35519531 -0.87060547 10.04101562 C-0.78897401 7.08139694 -0.78897401 7.08139694 -2 5 C-3.32 5 -4.64 5 -6 5 Z " fill="#000000" transform="translate(189,70)"/>
<path d="M0 0 C2.64 0 5.28 0 8 0 C9.61012006 3.22024012 9.61032693 6.78857855 9.97265625 10.33203125 C10.06002548 11.16079269 10.14739471 11.98955414 10.2374115 12.84342957 C10.42162153 14.59928168 10.60390624 16.35533669 10.78442383 18.11157227 C11.06036017 20.791716 11.34316731 23.47106793 11.62695312 26.15039062 C11.80509918 27.8567279 11.98284649 29.56310687 12.16015625 31.26953125 C12.28669334 32.46821587 12.28669334 32.46821587 12.41578674 33.69111633 C12.80192336 37.47914113 13.10244048 41.18587905 13 45 C11.33388095 45.042721 9.66617115 45.04063832 8 45 C6.26043342 43.26043342 6.62809614 40.8063378 6.4375 38.4375 C6.31181641 36.91962891 6.31181641 36.91962891 6.18359375 35.37109375 C6.12300781 34.58863281 6.06242188 33.80617187 6 33 C4.68 32.67 3.36 32.34 2 32 C1.67 36.29 1.34 40.58 1 45 C-0.65 45 -2.3 45 -4 45 C-5.66577955 41.6684409 -4.64703636 38.02374269 -4.2578125 34.4140625 C-4.12607132 33.13406876 -4.12607132 33.13406876 -3.9916687 31.82821655 C-3.8043934 30.02060012 -3.6142181 28.21328217 -3.42138672 26.40625 C-3.12701314 23.64389105 -2.84204219 20.88068659 -2.55859375 18.1171875 C-2.37555692 16.361921 -2.19198081 14.60671064 -2.0078125 12.8515625 C-1.87960617 11.61232529 -1.87960617 11.61232529 -1.74880981 10.34805298 C-1.66557465 9.57400116 -1.58233948 8.79994934 -1.49658203 8.00244141 C-1.42472687 7.32452545 -1.3528717 6.6466095 -1.27883911 5.94815063 C-0.98817866 3.91740847 -0.53074273 1.98036426 0 0 Z M4 11 C2.5192152 13.9615696 2.64685963 16.83506295 2.4375 20.125 C2.35371094 21.40632813 2.26992187 22.68765625 2.18359375 24.0078125 C2.12300781 24.99523437 2.06242188 25.98265625 2 27 C3.32 27 4.64 27 6 27 C5.67 21.72 5.34 16.44 5 11 C4.67 11 4.34 11 4 11 Z " fill="#000000" transform="translate(245,70)"/>
<path d="M0 0 C1.65 0 3.3 0 5 0 C5 6.6 5 13.2 5 20 C6.65 20 8.3 20 10 20 C10 13.4 10 6.8 10 0 C11.65 0 13.3 0 15 0 C15 14.85 15 29.7 15 45 C13.35 45 11.7 45 10 45 C10 38.4 10 31.8 10 25 C8.35 25 6.7 25 5 25 C5 31.6 5 38.2 5 45 C3.35 45 1.7 45 0 45 C0 30.15 0 15.3 0 0 Z " fill="#000000" transform="translate(158,70)"/>
<path d="M0 0 C2.05078125 0.03255208 4.1015625 0.06510417 6.15234375 0.09765625 C6.72948691 4.89822868 7.29882647 9.69964304 7.86132812 14.50195312 C8.05325875 16.13143121 8.24722392 17.76067112 8.44335938 19.38964844 C9.47824058 27.99605846 10.43311507 36.41129345 10.15234375 45.09765625 C8.50234375 45.09765625 6.85234375 45.09765625 5.15234375 45.09765625 C4.82234375 40.80765625 4.49234375 36.51765625 4.15234375 32.09765625 C2.50234375 32.09765625 0.85234375 32.09765625 -0.84765625 32.09765625 C-0.83605469 32.78472656 -0.82445312 33.47179687 -0.8125 34.1796875 C-0.79896484 35.53126953 -0.79896484 35.53126953 -0.78515625 36.91015625 C-0.77355469 37.80347656 -0.76195312 38.69679687 -0.75 39.6171875 C-0.84765625 42.09765625 -0.84765625 42.09765625 -1.84765625 45.09765625 C-3.49765625 45.09765625 -5.14765625 45.09765625 -6.84765625 45.09765625 C-6.38149215 34.74559841 -5.43394563 24.46453644 -4.34765625 14.16015625 C-4.21705811 12.89719727 -4.08645996 11.63423828 -3.9519043 10.33300781 C-3.82468994 9.15319336 -3.69747559 7.97337891 -3.56640625 6.7578125 C-3.45232422 5.69183838 -3.33824219 4.62586426 -3.22070312 3.52758789 C-2.70105942 0.14276213 -2.70105942 0.14276213 0 0 Z M1.15234375 8.09765625 C0.82234375 14.36765625 0.49234375 20.63765625 0.15234375 27.09765625 C1.14234375 27.09765625 2.13234375 27.09765625 3.15234375 27.09765625 C3.25889953 20.65695154 3.11439463 14.47124336 2.15234375 8.09765625 C1.82234375 8.09765625 1.49234375 8.09765625 1.15234375 8.09765625 Z " fill="#E44546" transform="translate(133.84765625,69.90234375)"/>
<path d="M0 0 C3 2 3 2 4 5 C4.068991 7.06145107 4.08467727 9.12501401 4.0625 11.1875 C4.05347656 12.27417969 4.04445313 13.36085938 4.03515625 14.48046875 C4.02355469 15.31191406 4.01195313 16.14335938 4 17 C2.35 17 0.7 17 -1 17 C-1.33 13.04 -1.66 9.08 -2 5 C-3.32 5 -4.64 5 -6 5 C-6.027193 6.58323688 -6.04648306 8.16661062 -6.0625 9.75 C-6.07410156 10.63171875 -6.08570313 11.5134375 -6.09765625 12.421875 C-6.00581214 14.84655952 -5.90443758 16.74884493 -5 19 C-2.68895182 20.05047644 -0.35416349 21.05007438 2 22 C4.47211853 25.70817779 4.36730992 28.6425901 4.375 32.9375 C4.39949219 33.65357422 4.42398437 34.36964844 4.44921875 35.10742188 C4.46852371 38.57909634 4.270716 40.62111712 2.23046875 43.4765625 C-1.42492814 45.97324339 -3.63894882 45.48456124 -8 45 C-10.17476401 43.45661909 -10.81832637 42.36334727 -12 40 C-12.07065617 37.95944995 -12.08421976 35.91665743 -12.0625 33.875 C-12.05347656 32.77929688 -12.04445313 31.68359375 -12.03515625 30.5546875 C-12.02355469 29.71164063 -12.01195312 28.86859375 -12 28 C-10.35 28 -8.7 28 -7 28 C-6.67 31.96 -6.34 35.92 -6 40 C-4.02 39.505 -4.02 39.505 -2 39 C-2 34.71 -2 30.42 -2 26 C-3.093125 25.773125 -4.18625 25.54625 -5.3125 25.3125 C-9 24 -9 24 -10.7109375 21.859375 C-12.28917948 18.35854733 -12.36574326 15.76691905 -12.3125 11.9375 C-12.30863281 10.72964844 -12.30476562 9.52179688 -12.30078125 8.27734375 C-12.02132694 5.23238059 -11.69837761 3.50255641 -10 1 C-6.87293041 -0.5635348 -3.42017557 -0.39958487 0 0 Z " fill="#E44546" transform="translate(18,70)"/>
<path d="M0 0 C2.67431489 1.81163267 2.95920359 2.87761077 4 6 C4.0685495 7.89470816 4.08480372 9.7916834 4.0625 11.6875 C4.05347656 12.68136719 4.04445313 13.67523438 4.03515625 14.69921875 C4.02355469 15.45847656 4.01195312 16.21773437 4 17 C2.35 17 0.7 17 -1 17 C-1.33 13.04 -1.66 9.08 -2 5 C-3.32 5 -4.64 5 -6 5 C-6.02694851 6.95825873 -6.04637218 8.91662226 -6.0625 10.875 C-6.07410156 11.96554688 -6.08570313 13.05609375 -6.09765625 14.1796875 C-6.19744303 16.95177546 -6.19744303 16.95177546 -5 19 C-3.865625 19.45375 -2.73125 19.9075 -1.5625 20.375 C2 22 2 22 3.20703125 23.6640625 C4.28489442 26.83924565 4.26418467 29.65241675 4.25 33 C4.25515625 34.216875 4.2603125 35.43375 4.265625 36.6875 C4.01844315 39.77000302 3.72321871 41.47584866 2 44 C-1.12942465 45.56471233 -4.61082223 45.69701958 -8 45 C-10.2421875 43.40234375 -10.2421875 43.40234375 -12 41 C-12.390625 37.765625 -12.390625 37.765625 -12.25 34.25 C-12.21390625 33.07953125 -12.1778125 31.9090625 -12.140625 30.703125 C-12.07101562 29.36507812 -12.07101562 29.36507812 -12 28 C-10.35 28 -8.7 28 -7 28 C-6.67 31.63 -6.34 35.26 -6 39 C-4.68 39.33 -3.36 39.66 -2 40 C-2 35.38 -2 30.76 -2 26 C-3.093125 25.7525 -4.18625 25.505 -5.3125 25.25 C-9.28445885 23.90357327 -10.08608861 23.57417187 -12 20 C-12.31988233 17.23345011 -12.4649944 14.75943789 -12.4375 12 C-12.45748047 11.2884375 -12.47746094 10.576875 -12.49804688 9.84375 C-12.49482739 6.39246259 -12.25801891 4.35974883 -10.2265625 1.52734375 C-6.57598606 -0.9768236 -4.36035195 -0.48448355 0 0 Z " fill="#000000" transform="translate(290,70)"/>
<path d="M0 0 C1.65 0 3.3 0 5 0 C5.99 5.61 6.98 11.22 8 17 C8.99 11.39 9.98 5.78 11 0 C12.65 0 14.3 0 16 0 C16.25815397 6.06245445 15.25147075 11.56849392 14.0625 17.5 C12.35757713 26.36115131 11.28100998 34.97957957 11 44 C9.34385343 44.38218767 7.67542976 44.71395102 6 45 C4.12322917 43.12322917 4.77550843 39.75446846 4.6875 37.25 C4.32714411 29.42603248 2.99628646 21.92572312 1.37182617 14.27246094 C0.35758982 9.39630672 -0.20955129 4.98191296 0 0 Z " fill="#000000" transform="translate(259,70)"/>
<path d="M0 0 C4.62 0 9.24 0 14 0 C14 1.65 14 3.3 14 5 C11.03 5 8.06 5 5 5 C5 9.95 5 14.9 5 20 C7.64 20 10.28 20 13 20 C13 21.65 13 23.3 13 25 C10.36 25 7.72 25 5 25 C5 29.95 5 34.9 5 40 C7.97 40 10.94 40 14 40 C14 41.65 14 43.3 14 45 C9.38 45 4.76 45 0 45 C0 30.15 0 15.3 0 0 Z " fill="#E44546" transform="translate(61,70)"/>
<path d="M0 0 C4.62 0 9.24 0 14 0 C14 1.65 14 3.3 14 5 C11.03 5 8.06 5 5 5 C5 9.95 5 14.9 5 20 C7.64 20 10.28 20 13 20 C13 21.65 13 23.3 13 25 C10.36 25 7.72 25 5 25 C5 29.95 5 34.9 5 40 C7.97 40 10.94 40 14 40 C14 41.65 14 43.3 14 45 C9.38 45 4.76 45 0 45 C0 30.15 0 15.3 0 0 Z " fill="#E44546" transform="translate(26,70)"/>
<path d="M0 0 C0.495 1.485 0.495 1.485 1 3 C1.66 3 2.32 3 3 3 C2.38722388 5.96175123 1.74627478 7.38058783 0 10 C-1.32 10 -2.64 10 -4 10 C-4.495 9.01 -4.495 9.01 -5 8 C-7.37429296 7.74930087 -7.37429296 7.74930087 -10 8 C-11.02104551 8.97850195 -12.0206121 9.97980427 -13 11 C-15.5 11.625 -15.5 11.625 -18 12 C-18.99 12.33 -19.98 12.66 -21 13 C-21.66 12.67 -22.32 12.34 -23 12 C-24.32 12 -25.64 12 -27 12 C-27.33 11.34 -27.66 10.68 -28 10 C-29.051875 10.70125 -30.10375 11.4025 -31.1875 12.125 C-34.59215729 14.10413005 -34.59215729 14.10413005 -37.9375 13.25 C-38.618125 12.8375 -39.29875 12.425 -40 12 C-39.67 9.69 -39.34 7.38 -39 5 C-37.35 4.67 -35.7 4.34 -34 4 C-33.67 4.99 -33.34 5.98 -33 7 C-33.33 7.66 -33.66 8.32 -34 9 C-33.34 9 -32.68 9 -32 9 C-31.67 7.35 -31.34 5.7 -31 4 C-28.36 3.67 -25.72 3.34 -23 3 C-22.67 3.99 -22.34 4.98 -22 6 C-21.01 4.68 -20.02 3.36 -19 2 C-16.98177083 2.32552083 -14.96354167 2.65104167 -12.9453125 2.9765625 C-11.98238281 2.98816406 -11.98238281 2.98816406 -11 3 C-10.34 2.34 -9.68 1.68 -9 1 C-5.97919173 0.46056995 -3.07250196 0 0 0 Z " fill="#E44546" transform="translate(285,142)"/>
<path d="M0 0 C1.65 0 3.3 0 5 0 C5 13.2 5 26.4 5 40 C7.97 40 10.94 40 14 40 C13.505 42.475 13.505 42.475 13 45 C8.71 45 4.42 45 0 45 C0 30.15 0 15.3 0 0 Z " fill="#000000" transform="translate(197,70)"/>
<path d="M0 0 C1.65 0 3.3 0 5 0 C5 14.85 5 29.7 5 45 C3.35 45 1.7 45 0 45 C0 30.15 0 15.3 0 0 Z " fill="#000000" transform="translate(213,70)"/>
<path d="M0 0 C1.65 0 3.3 0 5 0 C5 14.85 5 29.7 5 45 C3.35 45 1.7 45 0 45 C0 30.15 0 15.3 0 0 Z " fill="#E44546" transform="translate(119,70)"/>
<path d="M0 0 C0.66 0 1.32 0 2 0 C2.34576995 5.90166436 1.17754896 10.50689614 -0.75 16.0625 C-1.00265625 16.83916016 -1.2553125 17.61582031 -1.515625 18.41601562 C-3.4400785 24.09796458 -5.70373772 28.70373772 -10 33 C-13.125 33.125 -13.125 33.125 -16 33 C-17.66674321 30.08175756 -18.2432008 28.02405621 -18.1953125 24.671875 C-18.18886719 23.87265625 -18.18242187 23.0734375 -18.17578125 22.25 C-18.15902344 21.425 -18.14226562 20.6 -18.125 19.75 C-18.11597656 18.90953125 -18.10695312 18.0690625 -18.09765625 17.203125 C-18.07415817 15.13529396 -18.03828908 13.06761005 -18 11 C-17.01 10.67 -16.02 10.34 -15 10 C-13.76240177 13.71279469 -13.64391103 17.31306346 -13.4375 21.1875 C-13.39431641 21.93708984 -13.35113281 22.68667969 -13.30664062 23.45898438 C-13.20077315 25.30578375 -13.0999024 27.15286834 -13 29 C-6.21831302 23.14219502 -4.19062562 11.78974344 -1.796875 3.51953125 C-1 1 -1 1 0 0 Z " fill="#E44546" transform="translate(246,127)"/>
<path d="M0 0 C3.92331434 0.22418939 4.96128088 0.95952092 7.75 3.875 C12.06424738 9.86701025 11.48165926 16.13603487 10.4375 23.1875 C10.02433073 26.78797504 10.20987479 29.4883324 11 33 C7.6957195 32.10695122 6.27967977 31.4119873 4.33203125 28.54296875 C2.57312511 23.8645879 2.78320052 19.8769149 3 14.9375 C3.52808644 6.96308205 3.52808644 6.96308205 0 0 Z " fill="#E04042" transform="translate(165,130)"/>
<path d="M0 0 C3.65316671 1.24976756 4.78065836 1.67098753 7 5 C7.82468443 11.59747546 5.45357873 16.94272751 3 23 C2.01 22.34 1.02 21.68 0 21 C-0.35626491 15.92322498 0.14675652 11.10374534 0.87890625 6.078125 C1.00933873 3.83973542 0.64910177 2.13482359 0 0 Z " fill="#DF3F41" transform="translate(177,142)"/>
</svg>
